<svg width="26" height="26" viewBox="0 0 26 26" fill="currentColor" xmlns="http://www.w3.org/2000/svg">
<path d="M14.5474 22.8388H2.36234C1.42375 22.8388 0.660156 22.0752 0.660156 21.1366V5.24491C0.660156 4.30637 1.42375 3.54272 2.36234 3.54272H3.62766V4.35604H2.36234C1.8722 4.35604 1.47347 4.75482 1.47347 5.24491V21.1366C1.47347 21.6267 1.8722 22.0255 2.36234 22.0255H14.5475V22.8388H14.5474ZM19.9562 13.1649H19.1429V5.24491C19.1429 4.75482 18.7441 4.35604 18.254 4.35604H16.9887V3.54272H18.254C19.1926 3.54272 19.9562 4.30632 19.9562 5.24491V13.1649ZM14.7259 4.35604H11.4396V3.54272H14.7259V4.35604ZM9.17678 4.35604H5.89047V3.54272H9.17678V4.35604Z" fill="currentColor"/>
<path d="M11.4395 6.7325H9.17668C8.95207 6.7325 8.77002 6.55045 8.77002 6.32585V1.57267C8.77002 1.34807 8.95207 1.16602 9.17668 1.16602H11.4395C11.6641 1.16602 11.8462 1.34807 11.8462 1.57267V6.32585C11.8462 6.55045 11.6641 6.7325 11.4395 6.7325ZM9.58333 5.91919H11.0329V1.97933H9.58333V5.91919Z" fill="currentColor"/>
<path d="M5.89047 6.7325H3.6276C3.403 6.7325 3.22095 6.55045 3.22095 6.32585V1.57267C3.22095 1.34807 3.403 1.16602 3.6276 1.16602H5.89047C6.11507 1.16602 6.29712 1.34807 6.29712 1.57267V6.32585C6.29712 6.55045 6.11507 6.7325 5.89047 6.7325ZM4.03426 5.91919H5.48381V1.97933H4.03426V5.91919Z" fill="currentColor"/>
<path d="M16.9889 6.7325H14.726C14.5014 6.7325 14.3193 6.55045 14.3193 6.32585V1.57267C14.3193 1.34807 14.5014 1.16602 14.726 1.16602H16.9889C17.2135 1.16602 17.3955 1.34807 17.3955 1.57267V6.32585C17.3955 6.55045 17.2135 6.7325 16.9889 6.7325ZM15.1326 5.91919H16.5822V1.97933H15.1326V5.91919Z" fill="currentColor"/>
<path d="M1.06689 7.88257H19.5497V8.69588H1.06689V7.88257Z" fill="currentColor"/>
<path d="M14.4366 19.8965H6.17838C5.95378 19.8965 5.77173 19.7145 5.77173 19.4899V11.2316C5.77173 11.007 5.95378 10.825 6.17838 10.825H14.4366C14.6612 10.825 14.8433 11.007 14.8433 11.2316V19.4899C14.8433 19.7145 14.6612 19.8965 14.4366 19.8965ZM6.58504 19.0832H14.03V11.6383H6.58504V19.0832Z" fill="currentColor"/>
<path d="M9.77556 16.8059C9.66435 16.8059 9.55791 16.7604 9.48113 16.6798L8.61029 15.7657C8.45535 15.6031 8.4616 15.3457 8.6242 15.1908C8.7868 15.0359 9.04421 15.0421 9.19914 15.2047L9.77236 15.8064L11.4142 14.0449C11.5674 13.8806 11.8247 13.8716 11.989 14.0247C12.1532 14.1778 12.1623 14.4352 12.0092 14.5994L10.0731 16.6765C9.99672 16.7585 9.88987 16.8053 9.77785 16.8059H9.77561H9.77556Z" fill="currentColor"/>
<path d="M24.9332 24.8339H14.1659C13.9413 24.8339 13.7593 24.6518 13.7593 24.4272C13.7593 21.2345 16.3568 18.637 19.5496 18.637C22.7423 18.637 25.3398 21.2345 25.3398 24.4272C25.3398 24.6518 25.1577 24.8339 24.9331 24.8339H24.9332ZM14.589 24.0206H24.5101C24.3026 21.4657 22.157 19.4502 19.5496 19.4502C16.9421 19.4502 14.7965 21.4656 14.589 24.0206Z" fill="currentColor" fill-opacity="0.6"/>
<path d="M19.5497 19.4502C17.7047 19.4502 16.2036 17.9491 16.2036 16.1041C16.2036 14.2592 17.7047 12.7581 19.5497 12.7581C21.3947 12.7581 22.8957 14.2591 22.8957 16.1041C22.8957 17.9492 21.3947 19.4502 19.5497 19.4502ZM19.5497 13.5714C18.1532 13.5714 17.0169 14.7075 17.0169 16.1041C17.0169 17.5007 18.1532 18.6368 19.5497 18.6368C20.9462 18.6368 22.0824 17.5007 22.0824 16.1041C22.0824 14.7076 20.9462 13.5714 19.5497 13.5714Z" fill="currentColor" fill-opacity="0.6"/>
</svg>
