<svg width="26" height="26" viewBox="0 0 26 26" fill="none" xmlns="http://www.w3.org/2000/svg">
<g clip-path="url(#clip0_9_714)">
<path d="M6.95703 6.88892C6.7467 6.88892 6.57617 7.05939 6.57617 7.26978C6.57617 7.48016 6.7467 7.65063 6.95703 7.65063H12.2398C12.4501 7.65063 12.6206 7.48016 12.6206 7.26978C12.6206 7.05939 12.4501 6.88892 12.2398 6.88892H6.95703Z" fill="#1C212D"/>
<path d="M18.6938 14.9833C19.7273 14.9833 20.5682 14.1425 20.5682 13.1089V12.5658C20.5682 11.5322 19.7273 10.6914 18.6938 10.6914C17.6602 10.6914 16.8193 11.5323 16.8193 12.5658V13.1088C16.8193 14.1425 17.6602 14.9833 18.6938 14.9833ZM17.5811 12.5658C17.5811 11.9523 18.0802 11.4531 18.6938 11.4531C19.3073 11.4531 19.8065 11.9523 19.8065 12.5658V13.1088C19.8065 13.7224 19.3073 14.2216 18.6938 14.2216C18.0802 14.2216 17.5811 13.7224 17.5811 13.1088V12.5658Z" fill="#1C212D"/>
<path d="M16.1089 15.3483C15.7984 15.8375 15.6343 16.4033 15.6343 16.9847V18.1418C15.6343 18.6992 16.0878 19.1527 16.6452 19.1527H20.7422C21.2996 19.1527 21.7531 18.6992 21.7531 18.1418V16.9847C21.7531 16.4033 21.589 15.8375 21.2785 15.3483C20.988 14.8909 20.3827 14.7539 19.9278 15.0453C19.1752 15.5278 18.2099 15.526 17.4597 15.0453C17.0063 14.7549 16.4003 14.8894 16.1089 15.3483ZM19.112 16.1396L18.6937 16.8287L18.2754 16.1396C18.5431 16.1765 18.825 16.1791 19.112 16.1396ZM16.9372 15.6541C17.0143 15.6541 17.0416 15.685 17.1455 15.7463L18.1116 17.3377C18.2362 17.5429 18.4538 17.6653 18.6937 17.6653C18.9336 17.6653 19.1512 17.5429 19.2757 17.3377L20.2419 15.7463C20.3401 15.6884 20.3924 15.6358 20.4967 15.6592C20.5544 15.672 20.6036 15.7066 20.6354 15.7566C21.159 16.5814 20.9397 17.295 20.9914 18.1419C20.9914 18.2793 20.8796 18.3911 20.7422 18.3911H16.6452C16.5078 18.3911 16.396 18.2793 16.396 18.1419V16.9848C16.396 16.5482 16.5191 16.1235 16.752 15.7566C16.7939 15.6906 16.8646 15.6541 16.9372 15.6541Z" fill="#1C212D"/>
<path d="M25.1711 12.4186C23.8551 11.8571 22.8436 10.7563 22.396 9.39835C22.257 8.97651 21.9041 8.67264 21.4751 8.60535C20.5581 8.46144 19.6223 8.38846 18.6937 8.38846C17.7651 8.38846 16.8293 8.46144 15.9124 8.60535C15.4833 8.67264 15.1304 8.97656 14.9914 9.39835C14.8083 9.95405 14.5306 10.4667 14.1763 10.9169H3.18183C2.9715 10.9169 2.80098 11.0874 2.80098 11.2978C2.80098 11.5082 2.9715 11.6786 3.18183 11.6786H13.4322C13.068 11.9793 12.6594 12.2295 12.2162 12.4186C11.7439 12.6201 11.4625 13.0968 11.5161 13.6048C11.5312 13.7484 11.5491 13.8915 11.5696 14.0343H3.18183C2.9715 14.0343 2.80098 14.2048 2.80098 14.4152C2.80098 14.6256 2.9715 14.796 3.18183 14.796H11.7057C11.8783 15.6044 12.1378 16.3946 12.4787 17.1522H3.18183C2.9715 17.1522 2.80098 17.3227 2.80098 17.5331C2.80098 17.7435 2.9715 17.914 3.18183 17.914H12.8549C13.0987 18.3662 13.3728 18.8043 13.6757 19.2247C13.9412 19.5931 14.2246 19.942 14.5241 20.2698H3.18183C2.9715 20.2698 2.80098 20.4402 2.80098 20.6506C2.80098 20.861 2.9715 21.0315 3.18183 21.0315H15.2908C16.1817 21.834 17.183 22.4693 18.2572 22.9076C18.2757 22.9152 18.2944 22.9222 18.3131 22.9288V24.4201C18.3131 24.8712 17.9461 25.2382 17.495 25.2382H1.70207C1.25098 25.2382 0.883983 24.8711 0.883983 24.4201V6.59304H5.28291C6.07266 6.59304 6.71514 5.95056 6.71514 5.16081V0.761679H17.495C17.9461 0.761679 18.3131 1.12873 18.3131 1.57977V7.24594C18.3131 7.45632 18.4836 7.6268 18.6939 7.6268C18.9043 7.6268 19.0748 7.45632 19.0748 7.24594V1.57982C19.0748 0.708715 18.3661 1.14194e-05 17.495 1.14194e-05H6.33748C6.31763 -0.000140924 6.29787 0.00123017 6.27832 0.00417548C6.27807 0.00417548 6.27787 0.00422626 6.27761 0.00427704C6.27482 0.00468329 6.27198 0.00514033 6.26918 0.00564814C6.26898 0.00569892 6.26883 0.00569892 6.26862 0.0057497C6.26268 0.00681611 6.25679 0.00798408 6.25095 0.00930439C6.2506 0.00935517 6.25029 0.00945673 6.24994 0.00950751C6.24725 0.0101169 6.2446 0.010777 6.24191 0.0114372C6.24171 0.011488 6.24146 0.0115388 6.24125 0.0115895C6.23541 0.0130622 6.22962 0.0146872 6.22383 0.0164138C6.22363 0.0164645 6.22338 0.0165661 6.22318 0.0166169C6.21449 0.0192575 6.20586 0.0222536 6.19733 0.0255036C6.19723 0.0255544 6.19707 0.0256052 6.19697 0.025656C6.14837 0.0443942 6.10328 0.0732888 6.06494 0.111578L0.233628 5.94289C0.157811 6.01871 0.118964 6.12113 0.122264 6.22442V24.4202C0.122264 25.2913 0.830968 26 1.70207 26H17.495C18.3661 26 19.0748 25.2913 19.0748 24.4202V22.9286C19.0934 22.9221 19.1118 22.9152 19.1301 22.9076C21.3108 22.018 23.1961 20.3046 24.4387 18.0832C24.5413 17.8996 24.4758 17.6675 24.2922 17.5648C24.1087 17.4622 23.8766 17.5278 23.7739 17.7113C22.6153 19.7827 20.8639 21.3776 18.8424 22.2023C18.7479 22.2409 18.6395 22.2409 18.545 22.2023C17.5219 21.7849 16.569 21.1726 15.724 20.3958C15.7085 20.3786 15.6915 20.3629 15.6732 20.3488C15.172 19.8817 14.7096 19.3565 14.2937 18.7794C13.9736 18.3353 13.6881 17.8702 13.4387 17.3888C13.4304 17.3685 13.4205 17.3492 13.4089 17.3308C12.9304 16.3935 12.5888 15.395 12.3969 14.3687C12.395 14.3531 12.3921 14.3378 12.3884 14.3228C12.3401 14.0585 12.3018 13.7924 12.2736 13.525C12.2554 13.3518 12.3524 13.1887 12.5152 13.1192C14.0325 12.4719 15.1987 11.2026 15.7149 9.63682C15.7641 9.48763 15.885 9.38073 16.0305 9.35788C16.9085 9.22011 17.8045 9.15023 18.6937 9.15023C19.5829 9.15023 20.4789 9.22011 21.357 9.35788C21.5025 9.38073 21.6235 9.48763 21.6726 9.63682C22.1887 11.2026 23.3549 12.4719 24.8722 13.1192C25.035 13.1887 25.1321 13.3518 25.1138 13.525C25.0116 14.4951 24.7736 15.456 24.4064 16.3814C24.3288 16.5769 24.4244 16.7982 24.62 16.8758C24.8154 16.9531 25.0368 16.8578 25.1144 16.6623C25.5072 15.6725 25.7618 14.6439 25.8714 13.6049C25.9249 13.0969 25.6435 12.6202 25.1711 12.4186ZM5.28291 5.83132H1.42242L5.95342 1.30032V5.16081C5.95348 5.53055 5.65265 5.83132 5.28291 5.83132Z" fill="#1C212D"/>
</g>
<defs>
<clipPath id="clip0_9_714">
<rect width="26" height="26" fill="white"/>
</clipPath>
</defs>
</svg>
