<svg width="47" height="48" viewBox="0 0 47 48" fill="currentColor" xmlns="http://www.w3.org/2000/svg">
<path d="M42.3412 32.3562V35.5946H5.90748V32.1675C5.90567 31.4436 6.22734 30.7569 6.7847 30.2948C8.75063 28.7083 10.8653 27.3153 13.0987 26.135C13.243 26.4719 14.642 29.6881 15.534 31.0463V31.046C15.5463 31.0716 15.5722 31.0878 15.6006 31.0878C15.629 31.0878 15.6548 31.0716 15.6672 31.046C15.8484 30.5021 16.548 28.6144 17.6101 28.744H17.6104C17.6437 28.754 17.6793 28.738 17.694 28.7065C17.7087 28.6753 17.6984 28.6376 17.6695 28.6182C16.8663 27.978 14.8307 26.3309 14.0572 25.4131V23.1962C13.7128 22.6107 13.4782 21.9673 13.3651 21.2975C13.0986 21.2753 12.7506 20.905 12.3732 19.5765C11.8883 17.8667 12.3435 17.5262 12.7839 17.5298C12.5508 16.5304 11.9586 13.0589 14.5421 11.4822C14.2315 11.2199 14.0515 10.8342 14.0497 10.4276C14.0497 10.4276 17.0107 10.7607 18.4208 10.4684C19.8309 10.1759 21.3817 11.2937 21.6223 12.3708C21.6223 12.3708 24.5127 12.3708 23.3915 17.5339C23.843 17.5153 24.3353 17.8264 23.8355 19.5806C23.4653 20.9094 23.0954 21.2833 22.8437 21.3016V21.3013C22.7311 21.9713 22.4964 22.6146 22.1515 23.1999V25.3985C21.3741 26.3163 19.3424 27.9669 18.5356 28.6036C18.5067 28.6229 18.4961 28.6604 18.5111 28.6919C18.5258 28.7234 18.5614 28.7394 18.5947 28.7293C19.6568 28.5997 20.3564 30.4835 20.5377 31.0314C20.5501 31.0569 20.5761 31.0732 20.6043 31.0732C20.6327 31.0732 20.6587 31.0569 20.6711 31.0314C21.5631 29.6731 22.9621 26.4569 23.1064 26.1201C24.6095 26.9206 26.0619 27.8128 27.455 28.7924C27.9243 28.6359 28.3818 28.4469 28.8246 28.2259L28.9059 28.1779C29.137 28.0284 29.2761 27.7721 29.2761 27.4969V26.1164C25.6231 26.1497 24.5463 24.5842 24.5463 24.5842C24.5463 24.5842 26.6338 24.5509 26.5042 19.0326C26.3744 13.5143 28.8948 12.6223 29.8423 12.2781C32.5995 11.2307 33.9838 12.8962 33.9838 12.8962C37.1815 12.6001 38.0551 16.0938 37.6849 20.069C37.3147 24.044 39.4763 24.6656 39.4763 24.6656C37.9773 26.1979 34.813 26.1016 34.813 26.1016V27.5266H34.8127C34.8127 27.8018 34.9519 28.0582 35.1829 28.2077L35.2792 28.2668C36.3896 28.848 38.6695 29.4513 38.7139 29.4735C39.46 29.6759 40.1852 29.9498 40.8789 30.2914C41.6921 30.6789 42.2456 31.4608 42.3409 32.3564L42.3412 32.3562Z" fill="currentColor"/>
<defs>
<linearGradient id="paint0_linear_194_11795" x1="-12.3094" y1="23.0079" x2="39.147" y2="28.8259" gradientUnits="userSpaceOnUse">
<stop stop-color="#FFE1C0"/>
<stop offset="0.504" stop-color="#FFA23E"/>
</linearGradient>
</defs>
</svg>
