<svg width="22" height="18" viewBox="0 0 22 18" fill="none" xmlns="http://www.w3.org/2000/svg">
<path d="M0.620117 11.75C0.620117 10.5074 1.62748 9.5 2.87012 9.5H6.37012C7.61276 9.5 8.62012 10.5074 8.62012 11.75V15.25C8.62012 16.4926 7.61276 17.5 6.37012 17.5H2.87012C1.62748 17.5 0.620117 16.4926 0.620117 15.25V11.75Z" fill="#1C212D"/>
<path d="M12.6201 10.75C12.2059 10.75 11.8701 11.0858 11.8701 11.5C11.8701 11.9142 12.2059 12.25 12.6201 12.25H17.6201C18.0343 12.25 18.3701 11.9142 18.3701 11.5C18.3701 11.0858 18.0343 10.75 17.6201 10.75H12.6201Z" fill="#1C212D"/>
<path d="M20.6201 14.75H12.6201C12.2059 14.75 11.8701 15.0858 11.8701 15.5C11.8701 15.9142 12.2059 16.25 12.6201 16.25H20.6201C21.0343 16.25 21.3701 15.9142 21.3701 15.5C21.3701 15.0858 21.0343 14.75 20.6201 14.75Z" fill="#1C212D"/>
<path d="M0.620117 2.5C0.620117 1.39543 1.51555 0.5 2.62012 0.5H18.6201C19.7247 0.5 20.6201 1.39543 20.6201 2.5V5.5C20.6201 6.60457 19.7247 7.5 18.6201 7.5H2.62012C1.51555 7.5 0.620117 6.60457 0.620117 5.5V2.5Z" fill="#1C212D"/>
</svg>
