<svg width="26" height="26" viewBox="0 0 26 26" fill="none" xmlns="http://www.w3.org/2000/svg">
<path d="M13.4312 16.3918L13.9929 15.6087C14.1224 15.4259 14.3773 15.3843 14.5586 15.5153C14.7414 15.6463 14.783 15.8997 14.652 16.0825L14.102 16.8493C14.7658 17.7085 14.1538 18.9669 13.0625 18.9669C11.8966 18.9669 11.3081 17.5506 12.1343 16.7244C12.4679 16.3887 12.963 16.2562 13.4312 16.3918ZM13.4165 17.2987C13.1011 16.9849 12.5613 17.2078 12.5613 17.6527C12.5613 18.0975 13.1011 18.322 13.4165 18.0066C13.6125 17.8111 13.6125 17.4942 13.4165 17.2987ZM13.0625 13.3718C15.4259 13.3718 17.3434 15.2893 17.3434 17.6527C17.3434 20.0176 15.4259 21.9335 13.0625 21.9335C10.6977 21.9335 8.78169 20.0176 8.78169 17.6527C8.78169 15.2893 10.6977 13.3718 13.0625 13.3718ZM15.5153 15.1999C14.1609 13.8456 11.9642 13.8456 10.6098 15.1999C9.25548 16.5543 9.25548 18.7511 10.6098 20.1054C11.9642 21.4597 14.1609 21.4597 15.5153 20.1054C16.8701 18.7511 16.8701 16.5543 15.5153 15.1999ZM13.9365 12.1912L13.5927 11.2715H12.5329L12.1876 12.1912C12.1373 12.3267 12.022 12.4187 11.8895 12.4461C11.3096 12.57 10.7063 12.829 10.2041 13.1469C10.0786 13.2261 9.9263 13.2291 9.80392 13.1656L8.92439 12.767L8.17739 13.514L8.58466 14.4108C8.64204 14.5403 8.62782 14.683 8.55724 14.7952C8.22919 15.3106 7.98696 15.889 7.85493 16.4867C7.82345 16.6264 7.72544 16.733 7.60001 16.7787L6.68189 17.1225V18.1818L7.60001 18.5271C7.73661 18.5774 7.82903 18.6927 7.85646 18.8252C7.92247 19.1233 8.01489 19.4138 8.13118 19.6931C8.24899 19.9779 8.39169 20.2501 8.55724 20.5106C8.63646 20.6361 8.6395 20.7884 8.57603 20.9108L8.17739 21.7903L8.92439 22.5373L9.82118 22.1316C9.94915 22.0727 10.0934 22.0884 10.2041 22.1575C10.721 22.4855 11.2994 22.7278 11.8971 22.8598C12.0352 22.8913 12.1419 22.9893 12.1881 23.1147L12.5334 24.0328H13.5927L13.9365 23.1147C13.9868 22.9781 14.1036 22.8857 14.2361 22.8583C14.816 22.7344 15.4193 22.4754 15.9205 22.157C16.0459 22.0778 16.1983 22.0747 16.3222 22.1382L17.2017 22.5368L17.9487 21.7898L17.5415 20.893C17.4841 20.7651 17.4983 20.6208 17.5689 20.5101C17.7461 20.2308 17.8685 19.9922 17.9949 19.6941L17.9934 19.6926C18.1112 19.4092 18.2052 19.1167 18.2712 18.8176C18.3017 18.6795 18.4007 18.5728 18.5246 18.5266L19.4442 18.1813V17.122L18.5246 16.7782C18.3895 16.7279 18.2971 16.6112 18.2697 16.4786C18.1458 15.8987 17.8868 15.2954 17.5689 14.7942C17.4897 14.6688 17.4866 14.5164 17.5501 14.3925L17.9487 13.513L17.2017 12.766L16.3049 13.1733C16.1754 13.2306 16.0327 13.2164 15.9205 13.1458C15.4026 12.8163 14.8292 12.5756 14.229 12.4435C14.0888 12.4146 13.9822 12.3151 13.9365 12.1912ZM14.3712 11.0425L14.62 11.7062C15.1629 11.8489 15.6839 12.0632 16.1658 12.3465L17.0986 11.922C17.1535 11.8931 17.2124 11.8773 17.2728 11.8758C16.7792 9.94104 18.2402 8.0469 20.2466 8.0469C21.9406 8.0469 23.3153 9.42002 23.3153 11.1156C23.3153 11.8687 23.0431 12.5578 22.5927 13.092C23.5976 13.4561 24.5071 14.1112 24.8697 15.1273C24.9159 15.2599 24.8925 15.4122 24.795 15.526C23.6667 16.8503 22.0239 17.6263 20.2552 17.6288V18.4606H20.2537C20.2537 18.6246 20.1531 18.78 19.9901 18.8404L19.0085 19.2091C18.9364 19.4838 18.8475 19.7489 18.7424 20.0038H18.7409C18.6327 20.2659 18.5078 20.5178 18.3682 20.7554L18.7927 21.6898C18.8734 21.8421 18.8501 22.0381 18.7206 22.1661L17.576 23.3107C17.4592 23.426 17.2794 23.4646 17.1225 23.394L16.1653 22.9593C15.6829 23.2417 15.1649 23.456 14.6195 23.5987L14.2625 24.5488C14.2148 24.7199 14.0584 24.8453 13.871 24.8453H12.2536V24.8438C12.0896 24.8438 11.9342 24.7443 11.8738 24.5803L11.5051 23.5987C10.9582 23.456 10.4412 23.2417 9.95931 22.9593L9.02493 23.3823C8.87259 23.4646 8.6781 23.4397 8.5486 23.3102L7.404 22.1656C7.28872 22.0503 7.25013 21.8706 7.32071 21.7121L7.7554 20.7549C7.61575 20.5157 7.49032 20.2638 7.38267 20.0033C7.28212 19.7657 7.18259 19.4651 7.11657 19.2086L6.16646 18.8516C5.99532 18.8039 5.86989 18.6475 5.86989 18.4601V17.6283C4.98021 17.6268 4.13521 17.4313 3.37552 17.0799C2.59399 16.7188 1.90286 16.1932 1.34732 15.5468C1.2422 15.4401 1.20056 15.2776 1.2554 15.1263C1.61696 14.1102 2.52798 13.4551 3.53142 13.091C2.50513 11.8733 2.58282 10.071 3.70864 8.94369C4.90759 7.74627 6.85099 7.74627 8.04841 8.94369C8.80403 9.69932 9.12497 10.8079 8.85329 11.8743C8.90356 11.8758 8.95384 11.887 9.0031 11.9103L9.96032 12.345C10.4427 12.0617 10.9592 11.8469 11.5061 11.7047L11.7549 11.041C11.405 10.9562 11.0668 10.8363 10.7444 10.6885C10.0218 10.3544 9.38142 9.86791 8.86853 9.27072C8.76189 9.16408 8.72024 9.00158 8.77509 8.85025C9.10618 7.92045 9.93239 7.31311 10.848 6.97338C9.92122 5.83639 10.006 4.18244 11.0425 3.146C12.1581 2.02881 13.9675 2.02881 15.0847 3.146C16.1211 4.18244 16.2059 5.83639 15.2792 6.97338C16.1947 7.31311 17.0194 7.92045 17.352 8.85025H17.3505C17.3983 8.98279 17.3749 9.13514 17.2769 9.24889C16.5202 10.1371 15.5082 10.7662 14.3712 11.0425ZM18.7196 13.7776L18.3682 14.5489C18.6515 15.0313 18.8663 15.5493 19.0085 16.0947L19.9571 16.4517C20.1211 16.4964 20.2435 16.6416 20.2552 16.8173C21.6989 16.8143 23.0451 16.2186 24.0135 15.1862C23.6205 14.4017 22.7338 13.9441 21.8746 13.7166C20.9179 14.3174 19.7002 14.3417 18.7196 13.7776ZM5.87091 16.8178C5.88107 16.664 5.98009 16.5213 6.13446 16.4654L7.11607 16.0952C7.25876 15.5498 7.47306 15.0313 7.7554 14.5494L7.40552 13.7781C6.42544 14.3422 5.20618 14.3179 4.24896 13.7176C3.39126 13.9451 2.5031 14.4027 2.11157 15.1872C3.07997 16.2191 4.42567 16.8163 5.87091 16.8178ZM14.5667 7.59799C13.647 8.16928 12.4765 8.16928 11.5569 7.59799C10.7865 7.80365 9.99231 8.21396 9.63228 8.91068C11.4965 10.8785 14.6286 10.8785 16.4928 8.91068C16.1328 8.21396 15.337 7.80365 14.5667 7.59799ZM14.5093 3.72135C13.7105 2.92256 12.4151 2.92256 11.6158 3.72135C10.817 4.52014 10.817 5.81557 11.6158 6.61486C12.4146 7.41365 13.71 7.41365 14.5093 6.61486C15.3081 5.81607 15.3081 4.52014 14.5093 3.72135ZM21.8421 9.51955C20.9611 8.6385 19.5316 8.6385 18.651 9.51955C17.77 10.4021 17.77 11.8301 18.651 12.7106C19.5321 13.5917 20.9616 13.5917 21.8421 12.7106C22.7227 11.8296 22.7227 10.4021 21.8421 9.51955ZM7.47306 9.51955C6.592 8.6385 5.16403 8.6385 4.28196 9.51955C3.40091 10.4021 3.40091 11.8301 4.28196 12.7106C5.16454 13.5917 6.59251 13.5917 7.47306 12.7106C8.35564 11.8301 8.35411 10.4021 7.47306 9.51955Z" fill="#1C212D"/>
</svg>
