<svg width="24" height="24" viewBox="0 0 24 24" fill="none" xmlns="http://www.w3.org/2000/svg">
<path d="M8.09966 12.0766C8.09966 10.6658 6.95171 9.51807 5.54069 9.51807C4.1299 9.51807 2.98218 10.6658 2.98218 12.0766C2.98218 13.4874 4.1299 14.6351 5.54069 14.6351C6.95171 14.6351 8.09966 13.4873 8.09966 12.0766ZM3.9197 12.0766C3.9197 11.1828 4.6469 10.4556 5.54069 10.4556C6.43476 10.4556 7.16214 11.1828 7.16214 12.0766C7.16214 12.9704 6.43476 13.6976 5.54069 13.6976C4.6469 13.6976 3.9197 12.9704 3.9197 12.0766Z" fill="#1C212D"/>
<path d="M6.02528 17.9974C6.59914 17.9974 7.10732 17.6109 7.26145 17.0566L7.39927 16.5568C7.40719 16.528 7.42739 16.5041 7.45303 16.493C7.79026 16.3468 8.11136 16.1609 8.40683 15.9412C8.43003 15.924 8.4613 15.9183 8.49106 15.9261L8.99433 16.0564C9.55047 16.2 10.1393 15.9533 10.4265 15.4562L10.9101 14.6178C11.1973 14.1207 11.1169 13.4873 10.714 13.077L10.3496 12.7069C10.3282 12.685 10.3178 12.6562 10.3212 12.6274C10.3632 12.2619 10.3631 11.8907 10.3211 11.5252C10.3178 11.4969 10.3281 11.4683 10.3495 11.4466L10.7145 11.0755C11.1169 10.6658 11.1973 10.0323 10.9103 9.53544L10.4263 8.69654C10.1392 8.19965 9.55037 7.95294 8.99395 8.09662L8.4905 8.22703C8.46115 8.23457 8.42989 8.229 8.40734 8.21226C8.11127 7.99204 7.79017 7.80622 7.45317 7.66011C7.4273 7.6489 7.40714 7.625 7.39917 7.59612L7.26112 7.09543C7.10727 6.54201 6.59904 6.15552 6.02523 6.15552H5.05677C4.4822 6.15552 3.97392 6.54225 3.82073 7.09604L3.6824 7.59635C3.67448 7.625 3.65446 7.64876 3.62854 7.65997C3.29183 7.80594 2.97068 7.99166 2.67357 8.21226C2.65103 8.22904 2.62018 8.23453 2.59051 8.22689L2.08725 8.09652C1.53143 7.95299 0.942715 8.19975 0.655598 8.69663L0.171694 9.53473C-0.116361 10.032 -0.0356866 10.6657 0.367778 11.0757L0.731538 11.4456C0.753194 11.4677 0.763741 11.4967 0.760366 11.5256C0.718318 11.8913 0.718506 12.2626 0.760413 12.6283C0.763648 12.6562 0.753101 12.6855 0.732006 12.7069L0.367824 13.0772C-0.0356865 13.4873 -0.116361 14.1211 0.171319 14.6176L0.655645 15.4564C0.942715 15.9533 1.53153 16.2 2.08753 16.0563L2.59089 15.9259C2.62009 15.9184 2.65107 15.9238 2.674 15.9409C2.97068 16.1612 3.29187 16.3469 3.62882 16.493C3.65479 16.5043 3.67429 16.5275 3.68249 16.5572L3.82078 17.0569C3.97397 17.6106 4.4822 17.9974 5.05681 17.9974H6.02528V17.9974ZM4.72437 16.8069L4.58622 16.3077C4.50236 16.0034 4.28917 15.7573 4.00153 15.6328C3.73064 15.5154 3.47207 15.3658 3.23328 15.1885C2.9831 15.0023 2.65707 14.9401 2.35547 15.0185L1.85277 15.1486C1.70305 15.1876 1.54465 15.121 1.4675 14.9875L0.982935 14.1483C0.905777 14.0151 0.927668 13.845 1.03623 13.7346L1.40027 13.3645C1.62167 13.1397 1.72789 12.832 1.6918 12.521C1.65805 12.2266 1.65791 11.9275 1.69175 11.6331C1.72775 11.322 1.62177 11.0144 1.40051 10.7888L1.03619 10.4184C0.927668 10.3081 0.905777 10.138 0.98331 10.0042L1.4675 9.16568C1.5447 9.03199 1.70305 8.96556 1.85254 9.00433L2.35505 9.13446C2.66115 9.21419 2.98127 9.15218 3.233 8.96481C3.47211 8.78729 3.73068 8.63771 4.00135 8.52038C4.28907 8.39588 4.50222 8.1501 4.58617 7.8462L4.72446 7.34608C4.76566 7.19716 4.90235 7.09314 5.05691 7.09314H6.02537C6.17973 7.09314 6.31647 7.19739 6.35772 7.34571L6.49549 7.84527C6.57926 8.14926 6.79227 8.39522 7.08018 8.52024C7.35136 8.6378 7.60965 8.78729 7.84848 8.96491C8.10091 9.15213 8.42098 9.21387 8.72624 9.13455L9.22894 9.00438C9.37895 8.96556 9.53753 9.03199 9.61459 9.1654L10.0985 10.0043C10.1757 10.138 10.154 10.3084 10.0459 10.4184L9.68139 10.7891C9.46009 11.0139 9.35387 11.3215 9.38991 11.6327C9.42371 11.9269 9.42376 12.2258 9.38996 12.52C9.35391 12.8312 9.45995 13.1388 9.68083 13.3639C9.68102 13.3642 9.68125 13.3644 9.68144 13.3646L10.0457 13.7344C10.154 13.8448 10.1757 14.0152 10.0983 14.1491L9.61473 14.9875C9.53748 15.1212 9.3789 15.1876 9.22918 15.1488L8.72657 15.0187C8.42093 14.9394 8.10091 15.001 7.84792 15.1886C7.6096 15.3658 7.35127 15.5154 7.0799 15.633C6.79222 15.7578 6.57917 16.0038 6.49544 16.3077L6.35786 16.8066C6.31638 16.9558 6.17959 17.06 6.02523 17.06H5.05677C4.90226 17.0599 4.76557 16.9559 4.72437 16.8069Z" fill="#1C212D"/>
<path d="M22.6406 15.0382V7.39761C22.6406 6.65927 22.0399 6.05859 21.3016 6.05859H14.6957C13.9574 6.05859 13.3567 6.65927 13.3567 7.39761V9.94618C13.3567 10.205 13.5666 10.4149 13.8255 10.4149C14.0843 10.4149 14.2942 10.205 14.2942 9.94618V7.39761C14.2942 7.17622 14.4744 6.99612 14.6957 6.99612H21.3015C21.5229 6.99612 21.703 7.17627 21.703 7.39761V14.5804C21.3549 14.4772 20.9886 14.4337 20.6261 14.4519C19.204 14.5223 17.9643 15.5667 17.6537 16.9564H14.6957C14.4743 16.9564 14.2942 16.7763 14.2942 16.5549V14.0698C14.2942 13.811 14.0843 13.6011 13.8255 13.6011C13.5666 13.6011 13.3567 13.811 13.3567 14.0698V16.5549C13.3567 17.2933 13.9574 17.894 14.6957 17.894H17.5861C17.7067 19.5557 19.0963 20.8711 20.7883 20.8711C22.5592 20.8711 23.9999 19.4304 23.9999 17.6594C24 16.578 23.4622 15.6204 22.6406 15.0382ZM20.7883 19.9335C19.5343 19.9335 18.5142 18.9133 18.5142 17.6594C18.5142 16.4163 19.5693 15.3735 20.8124 15.3858C22.0411 15.3989 23.0624 16.4308 23.0624 17.6594C23.0625 18.9133 22.0423 19.9335 20.7883 19.9335Z" fill="#1C212D"/>
<path d="M16.1716 9.82669H19.8749C20.1337 9.82669 20.3436 9.61677 20.3436 9.35792C20.3436 9.09907 20.1337 8.88916 19.8749 8.88916H16.1716C15.9128 8.88916 15.7029 9.09907 15.7029 9.35792C15.7029 9.61677 15.9127 9.82669 16.1716 9.82669Z" fill="#1C212D"/>
<path d="M16.1716 12.4419H19.8749C20.1337 12.4419 20.3436 12.232 20.3436 11.9732C20.3436 11.7143 20.1337 11.5044 19.8749 11.5044H16.1716C15.9128 11.5044 15.7029 11.7143 15.7029 11.9732C15.7029 12.232 15.9127 12.4419 16.1716 12.4419Z" fill="#1C212D"/>
<path d="M16.1716 15.1509H17.4073C17.6662 15.1509 17.8761 14.941 17.8761 14.6821C17.8761 14.4233 17.6662 14.2134 17.4073 14.2134H16.1716C15.9128 14.2134 15.7029 14.4233 15.7029 14.6821C15.7029 14.941 15.9127 15.1509 16.1716 15.1509Z" fill="#1C212D"/>
<path d="M21.363 16.8624L20.4166 17.8087L20.1228 17.5149C19.9397 17.3319 19.6429 17.3319 19.4598 17.5149C19.2767 17.698 19.2767 17.9947 19.4598 18.1778L20.0851 18.8031C20.1767 18.8946 20.2966 18.9404 20.4166 18.9404C20.5365 18.9404 20.6565 18.8946 20.7481 18.8031L22.0259 17.5253C22.209 17.3422 22.209 17.0454 22.0259 16.8623C21.8428 16.6794 21.5461 16.6794 21.363 16.8624Z" fill="#1C212D"/>
<path d="M16.7763 19.9695C15.1703 21.0682 13.2889 21.649 11.3354 21.649C9.54515 21.649 7.83745 21.1698 6.33591 20.2551L7.02682 20.145C7.28248 20.1043 7.45677 19.8641 7.41603 19.6084C7.37534 19.3527 7.13501 19.179 6.87939 19.2191L5.04161 19.5117C4.76879 19.5552 4.59268 19.8343 4.66257 20.0997L5.02952 21.854C5.08178 22.1037 5.33435 22.2691 5.5843 22.2168C5.83771 22.1638 6.00018 21.9154 5.94717 21.662L5.81629 21.0363C7.47205 22.0535 9.35788 22.5865 11.3353 22.5865C13.4785 22.5865 15.543 21.9491 17.3056 20.7432C17.5193 20.5971 17.574 20.3053 17.4278 20.0917C17.2817 19.878 16.99 19.8233 16.7763 19.9695Z" fill="#1C212D"/>
<path d="M4.9099 4.65366C5.01476 4.65366 5.12028 4.61865 5.20757 4.54683C6.9275 3.13089 9.10378 2.3511 11.3355 2.3511C13.1988 2.3511 15.0234 2.89515 16.5761 3.89881L15.85 4.01436C15.5944 4.05505 15.42 4.29529 15.4607 4.55096C15.5008 4.80325 15.7452 4.98011 15.9973 4.94026L17.8349 4.64785C18.095 4.60632 18.2746 4.34733 18.2201 4.08894L17.8472 2.30549C17.7943 2.05212 17.5461 1.88956 17.2924 1.94262C17.039 1.99559 16.8765 2.24399 16.9295 2.4974L17.0538 3.09151C15.3569 2.00323 13.3672 1.41357 11.3355 1.41357C8.88703 1.41357 6.49915 2.26925 4.61177 3.82297C4.41189 3.98755 4.38325 4.28292 4.54778 4.4828C4.64041 4.59544 4.77462 4.65366 4.9099 4.65366Z" fill="#1C212D"/>
<path d="M13.5652 12.4191C13.9179 12.6608 14.3893 12.3102 14.2768 11.9047C14.162 11.491 13.5712 11.4449 13.3973 11.8399C13.3072 12.0446 13.3764 12.2957 13.5652 12.4191Z" fill="#1C212D"/>
</svg>
