<svg width="49" height="41" viewBox="0 0 49 41" fill="none" xmlns="http://www.w3.org/2000/svg">
<path d="M48.1131 13.7364C42.2194 9.89121 38.4651 6.43349 34.068 0.964922C31.6354 4.80835 28.5617 8.22664 24.5914 11.3021C19.212 7.2015 16.308 4.21179 14.0469 0.0683594C13.8343 0.366645 13.5771 0.709499 13.3646 1.05064C12.8949 1.73293 12.2109 2.50435 11.4429 3.27064C12.168 4.37978 12.8949 5.40664 13.6183 6.38893C15.8383 9.3375 18.2709 11.7289 20.748 13.7364C18.3994 15.7026 16.1366 17.8798 14.0451 20.5712C11.9091 17.8798 9.648 15.6581 7.30114 13.7792C9.47657 11.9861 11.5269 9.97865 13.5326 7.54265C13.3629 7.32836 13.1914 7.11579 13.02 6.9015C12.2966 5.96207 11.6109 4.97807 10.9286 3.91178C7.64057 8.18207 3.92743 11.1718 0 13.7346C3.97029 16.3832 7.72629 19.3746 11.0126 23.7306C13.788 27.3615 16.2634 31.9764 18.3137 38.1701C19.5943 40.9026 22.8394 40.6901 22.8394 38.1701C21.0891 32.5318 18.9566 28.0009 16.6063 24.2844C16.776 24.0718 16.9046 23.9004 17.0331 23.7289C22.1554 16.9798 29.3709 13.9472 34.5789 7.58378C36.5863 9.97521 38.6349 11.9826 40.8137 13.7329C38.6349 15.5278 36.5863 17.5352 34.5789 19.9284C32.7874 17.7066 30.8657 15.8261 28.86 14.1615C27.6634 15.0581 26.4669 15.9529 25.3149 16.8084C27.6634 18.6889 29.8834 20.8678 31.9749 23.5146C29.4137 27.4026 27.1509 32.1426 25.272 38.1684C25.272 40.6884 28.5154 40.9009 29.796 38.1684C31.2069 33.8946 32.8286 30.3924 34.5789 27.4026C36.372 30.3924 37.9937 33.8946 39.4011 38.1684C40.6834 40.9009 43.9286 40.6884 43.9286 38.1684C42.0497 32.1426 39.7869 27.4026 37.2257 23.5146C40.5137 19.2906 44.1857 16.3421 48.1131 13.7364ZM10.8857 25.1415C8.75143 28.7295 6.83143 32.9586 5.208 38.1718C5.208 40.6918 8.45143 40.9044 9.73543 38.1718C10.8429 34.7964 12.1251 31.8495 13.4914 29.3295C12.636 27.7918 11.7823 26.4238 10.8857 25.1415Z" fill="white"/>
<path fill-rule="evenodd" clip-rule="evenodd" d="M13.8737 9.25195C13.1931 10.1485 12.4663 11.0451 11.6109 11.9434H11.6537C10.9714 12.5845 10.2874 13.1811 9.51772 13.8222C11.268 15.2314 12.6771 16.6851 13.9594 18.264C15.1971 16.6851 16.6474 15.2314 18.3566 13.8222C16.4366 12.2845 15.4114 10.8308 13.8737 9.25195Z" fill="url(#paint0_linear_205_28610)"/>
<path d="M34.7242 10.5654C35.6936 11.622 36.6172 12.7168 37.8307 13.8174C36.6912 14.8123 35.665 15.8381 34.7418 16.9219C33.8107 15.8434 32.8039 14.817 31.6676 13.8184C32.8295 12.7833 33.7488 11.7833 34.7242 10.5654Z" fill="url(#paint1_linear_205_28610)" stroke="url(#paint2_linear_205_28610)" stroke-width="1.71429"/>
<defs>
<linearGradient id="paint0_linear_205_28610" x1="8.60297" y1="15.934" x2="22.8663" y2="12.044" gradientUnits="userSpaceOnUse">
<stop stop-color="#0496FF"/>
<stop offset="0.91" stop-color="#56CBFF"/>
</linearGradient>
<linearGradient id="paint1_linear_205_28610" x1="25.956" y1="13.758" x2="38.4625" y2="14.7114" gradientUnits="userSpaceOnUse">
<stop stop-color="#FFE1C0"/>
<stop offset="0.504" stop-color="#FFA23E"/>
</linearGradient>
<linearGradient id="paint2_linear_205_28610" x1="25.956" y1="13.758" x2="38.4625" y2="14.7114" gradientUnits="userSpaceOnUse">
<stop stop-color="#FFE1C0"/>
<stop offset="0.504" stop-color="#FFA23E"/>
</linearGradient>
</defs>
</svg>
