<svg width="26" height="26" viewBox="0 0 26 26" fill="none" xmlns="http://www.w3.org/2000/svg">
<g clip-path="url(#clip0_9_494)">
<path d="M11.5024 6.29321H15.983" stroke="#1C212D" stroke-width="0.761719" stroke-miterlimit="10" stroke-linecap="round" stroke-linejoin="round"/>
<path d="M6.08105 6.29321H9.48619" stroke="#1C212D" stroke-width="0.761719" stroke-miterlimit="10" stroke-linecap="round" stroke-linejoin="round"/>
<mask id="mask0_9_494" style="mask-type:luminance" maskUnits="userSpaceOnUse" x="0" y="0" width="26" height="26">
<path d="M0 1.90735e-06H26V26H0V1.90735e-06Z" fill="white"/>
</mask>
<g mask="url(#mask0_9_494)">
<path d="M0.380859 9.99243V7.30895C0.380859 6.74802 0.835555 6.29332 1.39648 6.29332H4.06473" stroke="#1C212D" stroke-width="0.761719" stroke-miterlimit="10" stroke-linecap="round" stroke-linejoin="round"/>
<path d="M5.07291 8.38208C4.51609 8.38208 4.0647 7.93069 4.0647 7.37392V4.96506C4.0647 4.40824 4.51609 3.95685 5.07291 3.95685C5.62972 3.95685 6.08112 4.40824 6.08112 4.96506V7.37392C6.08112 7.93069 5.62972 8.38208 5.07291 8.38208Z" stroke="#1C212D" stroke-width="0.761719" stroke-miterlimit="10" stroke-linecap="round" stroke-linejoin="round"/>
<path d="M10.4943 8.38208C9.93748 8.38208 9.48608 7.93069 9.48608 7.37392V4.96506C9.48608 4.40824 9.93748 3.95685 10.4943 3.95685C11.0511 3.95685 11.5025 4.40824 11.5025 4.96506V7.37392C11.5025 7.93069 11.0511 8.38208 10.4943 8.38208Z" stroke="#1C212D" stroke-width="0.761719" stroke-miterlimit="10" stroke-linecap="round" stroke-linejoin="round"/>
<path d="M0.380859 15.1528V9.99239H15.9831" stroke="#1C212D" stroke-width="0.761719" stroke-miterlimit="10" stroke-linecap="round" stroke-linejoin="round"/>
<path d="M20.6079 13.4123V24.6035C20.6079 25.1644 20.1532 25.6191 19.5923 25.6191H1.39648C0.835555 25.6191 0.380859 25.1644 0.380859 24.6035V17.1417" stroke="#1C212D" stroke-width="0.761719" stroke-miterlimit="10" stroke-linecap="round" stroke-linejoin="round"/>
<path d="M9.15917 15.1528H7.74512C7.60496 15.1528 7.49121 15.0391 7.49121 14.8989V13.4849C7.49121 13.3447 7.60496 13.231 7.74512 13.231H9.15917C9.29943 13.231 9.41308 13.3447 9.41308 13.4849V14.8989C9.41308 15.0391 9.29943 15.1528 9.15917 15.1528Z" stroke="#1C212D" stroke-width="0.761719" stroke-miterlimit="10" stroke-linecap="round" stroke-linejoin="round"/>
<path d="M13.2433 15.1528H11.8293C11.6891 15.1528 11.5754 15.0391 11.5754 14.8989V13.4849C11.5754 13.3447 11.6891 13.231 11.8293 13.231H13.2433C13.3836 13.231 13.4973 13.3447 13.4973 13.4849V14.8989C13.4973 15.0391 13.3836 15.1528 13.2433 15.1528Z" stroke="#1C212D" stroke-width="0.761719" stroke-miterlimit="10" stroke-linecap="round" stroke-linejoin="round"/>
<path d="M17.3276 15.1528H15.9136C15.7734 15.1528 15.6597 15.0391 15.6597 14.8989V13.4849C15.6597 13.3447 15.7734 13.231 15.9136 13.231H17.3276C17.4678 13.231 17.5815 13.3447 17.5815 13.4849V14.8989C17.5815 15.0391 17.4678 15.1528 17.3276 15.1528Z" stroke="#1C212D" stroke-width="0.761719" stroke-miterlimit="10" stroke-linecap="round" stroke-linejoin="round"/>
<path d="M5.07519 18.7666H3.66113C3.52093 18.7666 3.40723 18.6529 3.40723 18.5127V17.0986C3.40723 16.9584 3.52093 16.8447 3.66113 16.8447H5.07519C5.21545 16.8447 5.32909 16.9584 5.32909 17.0986V18.5127C5.32909 18.6529 5.21545 18.7666 5.07519 18.7666Z" stroke="#1C212D" stroke-width="0.761719" stroke-miterlimit="10" stroke-linecap="round" stroke-linejoin="round"/>
<path d="M9.15917 18.7666H7.74512C7.60496 18.7666 7.49121 18.6529 7.49121 18.5127V17.0986C7.49121 16.9584 7.60496 16.8447 7.74512 16.8447H9.15917C9.29943 16.8447 9.41308 16.9584 9.41308 17.0986V18.5127C9.41308 18.6529 9.29943 18.7666 9.15917 18.7666Z" stroke="#1C212D" stroke-width="0.761719" stroke-miterlimit="10" stroke-linecap="round" stroke-linejoin="round"/>
<path d="M13.2433 18.7666H11.8293C11.6891 18.7666 11.5754 18.6529 11.5754 18.5127V17.0986C11.5754 16.9584 11.6891 16.8447 11.8293 16.8447H13.2433C13.3836 16.8447 13.4973 16.9584 13.4973 17.0986V18.5127C13.4973 18.6529 13.3836 18.7666 13.2433 18.7666Z" stroke="#1C212D" stroke-width="0.761719" stroke-miterlimit="10" stroke-linecap="round" stroke-linejoin="round"/>
<path d="M17.3276 18.7666H15.9136C15.7734 18.7666 15.6597 18.6529 15.6597 18.5127V17.0986C15.6597 16.9584 15.7734 16.8447 15.9136 16.8447H17.3276C17.4678 16.8447 17.5815 16.9584 17.5815 17.0986V18.5127C17.5815 18.6529 17.4678 18.7666 17.3276 18.7666Z" stroke="#1C212D" stroke-width="0.761719" stroke-miterlimit="10" stroke-linecap="round" stroke-linejoin="round"/>
<path d="M9.15917 22.3806H7.74512C7.60496 22.3806 7.49121 22.267 7.49121 22.1267V20.7127C7.49121 20.5725 7.60496 20.4587 7.74512 20.4587H9.15917C9.29943 20.4587 9.41308 20.5725 9.41308 20.7127V22.1267C9.41308 22.267 9.29943 22.3806 9.15917 22.3806Z" stroke="#1C212D" stroke-width="0.761719" stroke-miterlimit="10" stroke-linecap="round" stroke-linejoin="round"/>
<path d="M13.2433 22.3806H11.8293C11.6891 22.3806 11.5754 22.267 11.5754 22.1267V20.7127C11.5754 20.5725 11.6891 20.4587 11.8293 20.4587H13.2433C13.3836 20.4587 13.4973 20.5725 13.4973 20.7127V22.1267C13.4973 22.267 13.3836 22.3806 13.2433 22.3806Z" stroke="#1C212D" stroke-width="0.761719" stroke-miterlimit="10" stroke-linecap="round" stroke-linejoin="round"/>
<path d="M5.07519 15.1528H3.66113C3.52093 15.1528 3.40723 15.0391 3.40723 14.8989V13.4849C3.40723 13.3447 3.52093 13.231 3.66113 13.231H5.07519C5.21545 13.231 5.32909 13.3447 5.32909 13.4849V14.8989C5.32909 15.0391 5.21545 15.1528 5.07519 15.1528Z" stroke="#1C212D" stroke-width="0.761719" stroke-miterlimit="10" stroke-linecap="round" stroke-linejoin="round"/>
<path d="M5.07519 22.3806H3.66113C3.52093 22.3806 3.40723 22.267 3.40723 22.1267V20.7127C3.40723 20.5725 3.52093 20.4587 3.66113 20.4587H5.07519C5.21545 20.4587 5.32909 20.5725 5.32909 20.7127V22.1267C5.32909 22.267 5.21545 22.3806 5.07519 22.3806Z" stroke="#1C212D" stroke-width="0.761719" stroke-miterlimit="10" stroke-linecap="round" stroke-linejoin="round"/>
<path d="M17.3276 22.3806H15.9136C15.7734 22.3806 15.6597 22.267 15.6597 22.1267V20.7127C15.6597 20.5725 15.7734 20.4587 15.9136 20.4587H17.3276C17.4678 20.4587 17.5815 20.5725 17.5815 20.7127V22.1267C17.5815 22.267 17.4678 22.3806 17.3276 22.3806Z" stroke="#1C212D" stroke-width="0.761719" stroke-miterlimit="10" stroke-linecap="round" stroke-linejoin="round"/>
<path d="M23.2059 9.24427V10.9712C23.2059 11.2516 22.9785 11.479 22.6981 11.479H16.491C16.2105 11.479 15.9832 11.2516 15.9832 10.9712V0.888727C15.9832 0.608313 16.2105 0.380915 16.491 0.380915H22.6981C22.9785 0.380915 23.2059 0.608313 23.2059 0.888727V2.56547" stroke="#1C212D" stroke-width="0.761719" stroke-miterlimit="10" stroke-linecap="round" stroke-linejoin="round"/>
<path d="M17.6719 5.80737H18.072" stroke="#1C212D" stroke-width="0.761719" stroke-miterlimit="10" stroke-linecap="round" stroke-linejoin="round"/>
<path d="M23.284 6.76281V7.29531C23.284 7.55993 23.5951 7.70201 23.7951 7.5287L25.5125 6.0406C25.6547 5.91751 25.6547 5.69697 25.5125 5.57382L23.7951 4.08573C23.5951 3.91241 23.284 4.0545 23.284 4.31912V4.85161C23.284 4.91986 23.2287 4.97516 23.1604 4.97516H19.9033C19.7327 4.97516 19.5945 5.11344 19.5945 5.28396V6.33046C19.5945 6.50104 19.7327 6.63926 19.9033 6.63926H23.1604C23.2287 6.63926 23.284 6.69456 23.284 6.76281Z" stroke="#1C212D" stroke-width="0.761719" stroke-miterlimit="10" stroke-linecap="round" stroke-linejoin="round"/>
</g>
</g>
<defs>
<clipPath id="clip0_9_494">
<rect width="26" height="26" fill="white"/>
</clipPath>
</defs>
</svg>
