<svg width="367" height="351" viewBox="0 0 367 351" fill="none" xmlns="http://www.w3.org/2000/svg">
<path d="M-108.851 349.793L75.7664 27.9817C85.3767 11.2092 103.257 0.921875 122.591 0.921875C158.129 0.921875 184.056 34.8027 174.668 69.1307L125.497 250.051L142.372 260.004L190.65 178.489C200.149 162.387 217.582 152.659 236.245 152.994C265.972 153.441 289.216 178.824 287.316 208.455L279.606 326.535V326.87C288.546 320.944 299.274 317.477 310.785 317.477C341.852 317.477 367.109 342.749 367.109 373.834C367.109 404.918 341.852 430.19 310.785 430.19C279.717 430.19 254.461 404.918 254.461 373.834C254.461 369.394 254.573 369.249 254.908 367.013V366.566C255.132 365.112 255.355 363.771 255.579 362.317L266.754 293.995L254.014 285.498L183.609 403.242C173.774 419.679 156.005 429.854 136.784 429.854C101.582 429.854 75.6546 397.091 83.5896 362.875L125.386 183.632L112.534 179.383L-16.3187 403.13C-25.8178 419.679 -43.4749 429.854 -62.5847 429.854C-103.598 429.854 -129.302 385.462 -108.851 349.793Z" fill="white"/>
</svg>
