<svg width="26" height="26" viewBox="0 0 26 26" fill="none" xmlns="http://www.w3.org/2000/svg">
<g clip-path="url(#clip0_9_323)">
<path d="M3.06322 16.8012C3.69611 17.0753 4.43274 16.8246 4.76892 16.2224C4.90714 15.9747 5.06086 15.7086 5.22295 15.4368C5.59548 14.8124 5.97797 14.2152 6.30012 13.7552C6.62208 13.2954 7.0524 12.7317 7.51187 12.1679C7.71179 11.9226 7.90933 11.6872 8.09478 11.4725C8.54572 10.9507 8.52932 10.1728 8.05533 9.67189L7.33657 8.91225C6.79265 8.33741 5.87087 8.35503 5.35128 8.95201C5.06715 9.27848 4.80802 9.59109 4.62526 9.81539C4.11044 10.447 3.62192 11.0877 3.24969 11.6193C2.87737 12.1511 2.44242 12.8293 2.02505 13.5289C1.87682 13.7773 1.67172 14.1277 1.46209 14.5064C1.0789 15.1988 1.37754 16.0709 2.10366 16.3855L3.06322 16.8012Z" stroke="#1C212D" stroke-width="0.761719" stroke-miterlimit="10" stroke-linecap="round" stroke-linejoin="round"/>
<path d="M22.9366 17.309C22.3037 17.5831 21.5671 17.3324 21.2309 16.7302C21.0927 16.4825 20.939 16.2164 20.7769 15.9446C20.4044 15.3202 20.0219 14.723 19.6997 14.263C19.3778 13.8032 18.9475 13.2395 18.488 12.6757C18.2881 12.4304 18.0905 12.195 17.9051 11.9804C17.4541 11.4585 17.4705 10.6806 17.9445 10.1797L18.6633 9.42006C19.2072 8.84522 20.129 8.86284 20.6486 9.45982C20.9327 9.7863 21.1918 10.0989 21.3746 10.3232C21.8894 10.9548 22.3779 11.5955 22.7502 12.1271C23.1225 12.6589 23.5574 13.3371 23.9748 14.0367C24.123 14.2851 24.3281 14.6355 24.5378 15.0142C24.921 15.7066 24.6223 16.5787 23.8962 16.8933L22.9366 17.309Z" stroke="#1C212D" stroke-width="0.761719" stroke-miterlimit="10" stroke-linecap="round" stroke-linejoin="round"/>
<path d="M13.2738 6.42385C14.9394 6.28211 16.1746 4.81704 16.0329 3.15153C15.8911 1.48602 14.426 0.250772 12.7605 0.392517C11.095 0.534263 9.85978 1.99933 10.0015 3.66484C10.1433 5.33034 11.6083 6.5656 13.2738 6.42385Z" stroke="#1C212D" stroke-width="0.761719" stroke-miterlimit="10" stroke-linecap="round" stroke-linejoin="round"/>
<path d="M17.5888 11.263C16.1235 11.102 14.7326 11.1146 13.562 11.1383" stroke="#1C212D" stroke-width="0.761719" stroke-miterlimit="10" stroke-linecap="round" stroke-linejoin="round"/>
<path d="M19.3999 21.288C20.3671 20.0739 21.156 18.6841 21.7051 17.2231" stroke="#1C212D" stroke-width="0.761719" stroke-miterlimit="10" stroke-linecap="round" stroke-linejoin="round"/>
<path d="M12.4288 14.0876C10.9286 15.1298 8.96932 16.1175 6.84377 16.8741C6.02822 17.1644 5.60242 18.0608 5.89269 18.8764C6.12719 19.5351 6.75708 19.9393 7.42039 19.9175C7.32756 20.2144 7.32157 20.5417 7.42333 20.8605C7.65627 21.5902 8.3736 22.0301 9.10704 21.9395C9.03869 22.2124 9.0427 22.5071 9.13436 22.7948C9.32926 23.4065 9.86469 23.8149 10.465 23.878C10.4318 24.1729 10.4816 24.4804 10.6267 24.7645C10.9272 25.3531 11.5488 25.6706 12.169 25.6126C14.3918 25.4049 16.4724 24.2806 18.1799 22.6325" stroke="#1C212D" stroke-width="0.761719" stroke-miterlimit="10" stroke-linecap="round" stroke-linejoin="round"/>
<path d="M4.42651 16.6235C4.65787 17.0639 4.94997 17.5233 5.26349 17.9404C5.44605 18.1833 5.63572 18.4115 5.82437 18.6133" stroke="#1C212D" stroke-width="0.761719" stroke-miterlimit="10" stroke-linecap="round" stroke-linejoin="round"/>
<path d="M12.4291 14.0874C12.7279 14.1554 13.0015 14.2272 13.2248 14.2995C13.3851 14.3513 13.5477 14.3759 13.7076 14.3759C14.3691 14.3759 14.9841 13.9538 15.1986 13.2905C15.465 12.4668 15.0133 11.5831 14.1896 11.3167C13.8196 11.197 13.3316 11.0738 12.797 10.9613C12.2302 10.842 11.49 10.7357 10.7443 10.678C9.8903 10.6118 9.03011 10.6097 8.41479 10.7243" stroke="#1C212D" stroke-width="0.761719" stroke-miterlimit="10" stroke-linecap="round" stroke-linejoin="round"/>
<path d="M4.93507 6.6665C4.93151 6.78706 4.92801 6.90888 4.92466 7.03182C4.90313 7.81934 4.88647 8.65347 4.87769 9.50883" stroke="#1C212D" stroke-width="0.761719" stroke-miterlimit="10" stroke-linecap="round" stroke-linejoin="round"/>
<path d="M11.0883 1.0752C9.82911 1.10008 8.68227 1.14543 7.74149 1.1925C6.27625 1.26588 5.10686 2.4405 5.03947 3.90605C5.02576 4.20423 5.0119 4.52304 4.99829 4.85941" stroke="#1C212D" stroke-width="0.761719" stroke-miterlimit="10" stroke-linecap="round" stroke-linejoin="round"/>
<path d="M21.161 10.0635C21.1548 9.01424 21.1357 7.98881 21.1095 7.03189C21.0775 5.86128 21.0354 4.79264 20.9946 3.90605C20.9273 2.44055 19.7578 1.26588 18.2926 1.1925C17.3518 1.14543 16.205 1.10008 14.9458 1.0752" stroke="#1C212D" stroke-width="0.761719" stroke-miterlimit="10" stroke-linecap="round" stroke-linejoin="round"/>
<path d="M12.5907 17.4395C11.8485 17.9464 11.2047 18.3421 10.5702 18.679C9.7312 19.1243 8.90824 19.4668 7.89516 19.8274C7.64785 19.9154 7.39319 19.9372 7.15015 19.9026" stroke="#1C212D" stroke-width="0.761719" stroke-miterlimit="10" stroke-linecap="round" stroke-linejoin="round"/>
<path d="M15.5941 21.6113C14.9712 22.0842 14.2639 22.5094 13.4629 22.8919C12.7524 23.2312 11.9682 23.5369 11.1038 23.8123C10.8907 23.8802 10.674 23.8998 10.4651 23.8779" stroke="#1C212D" stroke-width="0.761719" stroke-miterlimit="10" stroke-linecap="round" stroke-linejoin="round"/>
<path d="M13.9263 19.7441C13.3001 20.176 12.6101 20.5589 11.9065 20.892C11.0592 21.2931 10.1922 21.622 9.39333 21.877C9.29837 21.9073 9.2026 21.9277 9.10718 21.9395" stroke="#1C212D" stroke-width="0.761719" stroke-miterlimit="10" stroke-linecap="round" stroke-linejoin="round"/>
<path d="M13.9154 2.81543L12.7178 4.01316L12.1189 3.41429" stroke="#1C212D" stroke-width="0.761719" stroke-miterlimit="10" stroke-linecap="round" stroke-linejoin="round"/>
<path d="M10.7563 8.41528H15.278" stroke="#1C212D" stroke-width="0.761719" stroke-miterlimit="10" stroke-linecap="round" stroke-linejoin="round"/>
</g>
<defs>
<clipPath id="clip0_9_323">
<rect width="26" height="26" fill="white"/>
</clipPath>
</defs>
</svg>
