<svg width="26" height="26" viewBox="0 0 26 26" fill="none" xmlns="http://www.w3.org/2000/svg">
<path d="M17.2595 22.9355C17.0492 22.9355 16.8787 23.106 16.8787 23.3164V25.619C16.8787 25.8294 17.0492 25.9999 17.2595 25.9999C17.4699 25.9999 17.6404 25.8294 17.6404 25.619V23.3164C17.6404 23.1061 17.4699 22.9355 17.2595 22.9355Z" fill="#1C212D"/>
<path d="M21.65 13.7659C21.4145 13.5129 21.1151 13.3436 20.7857 13.2731C21.4183 12.6243 21.4133 11.5817 20.7707 10.939C20.5034 10.6716 20.161 10.5066 19.7911 10.4636C20.0352 9.87263 19.9372 9.16853 19.4879 8.6862C19.2178 8.39609 18.8637 8.21601 18.4767 8.16879C18.5619 7.96693 18.6067 7.74811 18.6067 7.52238C18.6067 7.07865 18.4339 6.66147 18.1201 6.34769C17.8064 6.03406 17.39 5.8614 16.9477 5.8614C16.8021 5.86064 16.6596 5.87923 16.5225 5.91508L10.8546 0.247245C10.525 -0.0824319 9.98866 -0.0823812 9.65903 0.247194L8.46418 1.44204C8.31544 1.59084 8.31544 1.83195 8.46418 1.98069C8.61292 2.12938 8.85408 2.12938 9.00277 1.98069L10.1976 0.785839C10.2303 0.753136 10.2833 0.753136 10.316 0.785839L15.826 6.29579C15.8075 6.31275 15.7891 6.33007 15.7712 6.348L15.3778 6.74135L10.5261 1.88959C10.3773 1.7409 10.1362 1.7409 9.98749 1.88959L5.80681 6.07027C5.73535 6.14172 5.69524 6.23856 5.69524 6.33962C5.69524 6.44067 5.73535 6.53746 5.80681 6.60897L7.80985 8.61196C7.8842 8.68631 7.9817 8.72348 8.07915 8.72348C8.1766 8.72348 8.2741 8.68631 8.34845 8.61196C8.49719 8.46317 8.49719 8.22206 8.34845 8.07332L6.6147 6.33962L10.2568 2.69753L14.8392 7.27995L14.1616 7.95753C14.1161 7.47292 13.9056 7.0233 13.5571 6.67478C13.1611 6.27873 12.6346 6.06067 12.0745 6.06067C11.5145 6.06067 10.988 6.27878 10.592 6.67478C10.196 7.07078 9.97789 7.59729 9.97789 8.15731C9.97789 8.71733 10.1959 9.24384 10.592 9.63984C10.9502 9.99806 11.4068 10.1993 11.8756 10.2435L11.1972 10.9219L9.63851 9.36328C9.48977 9.21459 9.24861 9.21459 9.09992 9.36328C8.95118 9.51207 8.95118 9.75319 9.09992 9.90193L10.6586 11.4605L10.2118 11.9073L4.70301 6.39888C4.68274 6.37862 4.67848 6.35551 4.67848 6.33967C4.67848 6.32382 4.68274 6.30072 4.70301 6.28051L7.71271 3.27076C7.86145 3.12197 7.86145 2.88085 7.71271 2.73211C7.56397 2.58342 7.3228 2.58342 7.17411 2.73211L4.16441 5.74186C4.0047 5.90157 3.91675 6.11384 3.91675 6.33967C3.91675 6.56545 4.0047 6.77777 4.16436 6.93748L7.28152 10.0546V12.5423C7.28152 13.1809 7.42411 13.825 7.69387 14.4049L10.3253 20.0607L10.1979 25.6104C10.1931 25.8207 10.3597 25.9951 10.57 25.9999C10.573 25.9999 10.5759 26 10.5789 26C10.7852 26 10.9547 25.8352 10.9595 25.6279L11.089 19.9894C11.0903 19.931 11.0782 19.873 11.0535 19.82L8.38455 14.0836C8.16131 13.6037 8.0433 13.0708 8.0433 12.5423V10.8162L9.67304 12.446L9.04893 13.0701C8.90019 13.2188 8.90019 13.46 9.04893 13.6087C9.12333 13.6831 9.22078 13.7202 9.31828 13.7202C9.41573 13.7202 9.51323 13.6831 9.58758 13.6087L16.3099 6.88664C16.4798 6.71667 16.7057 6.62313 16.9463 6.62313H16.9473C17.1866 6.62313 17.4118 6.71662 17.5816 6.88634C17.7515 7.05625 17.845 7.28213 17.845 7.52238C17.845 7.76263 17.7515 7.98851 17.5816 8.15833L15.7054 10.0345C15.5567 10.1833 15.5567 10.4244 15.7054 10.5731C15.7798 10.6475 15.8773 10.6846 15.9747 10.6846C16.0722 10.6846 16.1697 10.6475 16.244 10.5731C16.244 10.5731 17.6208 9.19631 17.6357 9.18148C17.8099 9.00725 18.043 8.91442 18.2879 8.91813C18.534 8.92254 18.7622 9.02446 18.9305 9.20525C19.2562 9.55488 19.2361 10.1245 18.8857 10.4748L16.8944 12.4664C16.7457 12.6152 16.7457 12.8563 16.8944 13.005C16.9688 13.0794 17.0663 13.1165 17.1637 13.1165C17.2612 13.1165 17.3587 13.0794 17.433 13.005C17.433 13.005 18.9476 11.4901 18.9601 11.4776C19.13 11.3076 19.3559 11.214 19.5961 11.214C19.8363 11.214 20.0621 11.3076 20.2321 11.4775C20.5827 11.8282 20.5827 12.3989 20.2321 12.7496L18.2552 14.7264C18.1064 14.8752 18.1064 15.1163 18.2552 15.2651C18.3295 15.3394 18.427 15.3766 18.5245 15.3766C18.6219 15.3766 18.7194 15.3394 18.7938 15.2651C18.7938 15.2651 19.7795 14.2793 19.7977 14.2612C19.9719 14.087 20.2038 13.9941 20.45 13.9979C20.696 14.0022 20.9242 14.1042 21.0925 14.2849C21.4182 14.6346 21.3981 15.2041 21.0477 15.5545L16.9902 19.612C16.9188 19.6834 16.8787 19.7803 16.8787 19.8813V21.4919C16.8787 21.7023 17.0492 21.8728 17.2595 21.8728C17.4699 21.8728 17.6404 21.7023 17.6404 21.4919V20.0391L21.5864 16.0932C22.2234 15.4562 22.2519 14.4121 21.65 13.7659ZM11.1306 9.10125C10.8785 8.84911 10.7397 8.51395 10.7397 8.15736C10.7397 7.80077 10.8785 7.46561 11.1307 7.21342C11.3828 6.96129 11.718 6.82245 12.0746 6.82245C12.4312 6.82245 12.7664 6.96129 13.0185 7.21342V7.21348C13.2706 7.46561 13.4094 7.80077 13.4094 8.15736C13.4094 8.50923 13.274 8.84013 13.0282 9.09104L13.0087 9.11054C12.4874 9.62151 11.6479 9.61856 11.1306 9.10125Z" fill="#1C212D"/>
</svg>
