<svg width="48" height="48" viewBox="0 0 48 48" fill="currentColor" xmlns="http://www.w3.org/2000/svg">
<path d="M11.5454 28.2845V26.2237C11.5454 25.6841 11.982 25.2426 12.5265 25.2426H23.3194V28.2842C23.6335 28.2206 23.9621 28.186 24.3005 28.186C24.6341 28.186 24.9627 28.2202 25.2816 28.2842L25.2819 25.2426H36.5654C37.1051 25.2426 37.5465 25.6841 37.5465 26.2237V28.2842C37.8607 28.2206 38.1892 28.186 38.5276 28.186C38.8613 28.186 39.1898 28.2202 39.5087 28.2842L39.509 26.2237C39.509 24.6 38.1844 23.28 36.5653 23.28L25.2818 23.2804V20.3367H23.3196V23.2804H12.5267C10.903 23.2804 9.58301 24.5999 9.58301 26.2241V28.2845C9.89715 28.2209 10.2257 28.1863 10.5641 28.1863C10.8977 28.1863 11.2266 28.2206 11.5452 28.2845L11.5454 28.2845Z" fill="currentColor"/>
<path d="M27.1019 37.1101C26.3069 37.6693 25.3406 37.9982 24.3005 37.9982C23.2554 37.9982 22.289 37.6693 21.4945 37.1101C19.7332 37.4978 18.4136 39.0676 18.4136 40.9414V42.9036C18.4136 43.4433 18.8502 43.8847 19.3947 43.8847H29.2064C29.7461 43.8847 30.1875 43.4432 30.1875 42.9036V40.9414C30.1875 39.0675 28.8628 37.4978 27.1018 37.1101H27.1019Z" fill="currentColor"/>
<path d="M41.1918 37.2036C40.4215 37.7043 39.5092 37.9986 38.5278 37.9986C37.4437 37.9986 36.4427 37.6403 35.6282 37.0417C33.6759 37.2625 32.1504 38.9256 32.1504 40.9419V42.9041C32.1504 43.4438 32.587 43.8852 33.1315 43.8852H42.9432C43.4829 43.8852 43.9243 43.4437 43.9243 42.9041V40.9419C43.9243 39.1956 42.7714 37.7091 41.1918 37.2036V37.2036Z" fill="currentColor"/>
<path d="M13.3658 37.1101C12.5712 37.6693 11.6045 37.9982 10.5645 37.9982C9.51933 37.9982 8.55296 37.6693 7.75838 37.1101C5.99708 37.4978 4.67749 39.0676 4.67749 40.9414V42.9036C4.67749 43.4433 5.11415 43.8847 5.65858 43.8847H15.4703C16.01 43.8847 16.4514 43.4432 16.4514 42.9036V40.9414C16.4514 39.0675 15.1271 37.4978 13.3657 37.1101H13.3658Z" fill="currentColor"/>
<path d="M27.2441 33.0921C27.2441 34.7176 25.9262 36.0355 24.3004 36.0355C22.6745 36.0355 21.3567 34.7176 21.3567 33.0921C21.3567 31.4663 22.6745 30.1484 24.3004 30.1484C25.9262 30.1484 27.2441 31.4663 27.2441 33.0921Z" fill="currentColor"/>
<path d="M19.3945 18.3748H29.2063C29.7459 18.3748 30.1874 17.9333 30.1874 17.3937V15.4315C30.1874 13.5576 28.8627 11.9876 27.1016 11.6002C26.3067 12.159 25.3403 12.4879 24.3003 12.4879C23.2552 12.4879 22.2888 12.159 21.4942 11.5999C19.7329 11.9872 18.4133 13.5573 18.4133 15.4312V17.3933C18.4133 17.9334 18.85 18.3748 19.3944 18.3748H19.3945Z" fill="currentColor"/>
<path d="M27.2441 7.58189C27.2441 9.2074 25.9262 10.5252 24.3004 10.5252C22.6745 10.5252 21.3567 9.2074 21.3567 7.58189C21.3567 5.95603 22.6745 4.63818 24.3004 4.63818C25.9262 4.63818 27.2441 5.95603 27.2441 7.58189Z" fill="currentColor"/>
<path d="M41.471 33.0921C41.471 34.7176 40.1532 36.0355 38.5273 36.0355C36.9018 36.0355 35.584 34.7176 35.584 33.0921C35.584 31.4663 36.9018 30.1484 38.5273 30.1484C40.1532 30.1484 41.471 31.4663 41.471 33.0921Z" fill="currentColor"/>
<path d="M13.5079 33.0921C13.5079 34.7176 12.1901 36.0355 10.5642 36.0355C8.93869 36.0355 7.62085 34.7176 7.62085 33.0921C7.62085 31.4663 8.93869 30.1484 10.5642 30.1484C12.1901 30.1484 13.5079 31.4663 13.5079 33.0921Z" fill="currentColor"/>
</svg>
