<svg width="24" height="26" viewBox="0 0 24 26" fill="none" xmlns="http://www.w3.org/2000/svg">
<path d="M0.226074 24.8196C0.226074 25.4704 0.755626 26 1.40655 26H3.6868C3.78151 26 3.88236 25.9622 3.95615 25.8885L6.9184 22.9262C6.98645 22.8582 7.02991 22.7609 7.02991 22.6569V17.989C7.02991 17.3381 6.50036 16.8085 5.84949 16.8085H4.00886V15.2125C4.00886 15.078 4.11824 14.9686 4.25276 14.9686H11.6191V16.8085H9.77848C9.12761 16.8085 8.59805 17.338 8.59805 17.9889V24.8196C8.59805 25.4704 9.12761 26 9.77848 26H12.0587C12.1536 26 12.2546 25.9619 12.3281 25.8885L15.2903 22.9262C15.3574 22.8592 15.4018 22.7623 15.4018 22.6569V17.989C15.4018 17.3381 14.8723 16.8085 14.2214 16.8085H12.3808V14.9686H19.7471C19.8816 14.9686 19.991 15.078 19.991 15.2125V16.8086H18.1505C17.4995 16.8086 16.97 17.3381 16.97 17.989V24.8196C16.97 25.4704 17.4995 26 18.1505 26H20.4307C20.5284 26 20.6275 25.9609 20.7001 25.8885L23.6623 22.9262C23.7312 22.8573 23.7738 22.759 23.7738 22.6569V20.9461C23.7738 20.7358 23.6033 20.5653 23.393 20.5653C23.1826 20.5653 23.0121 20.7358 23.0121 20.9461V22.276H21.2303C20.5794 22.276 20.0498 22.8056 20.0498 23.4565V25.2383H18.1505C17.9196 25.2383 17.7317 25.0504 17.7317 24.8196V17.989C17.7317 17.7581 17.9196 17.5702 18.1505 17.5702H22.5934C22.8243 17.5702 23.0121 17.7581 23.0121 17.989V19.1687C23.0121 19.3791 23.1826 19.5496 23.393 19.5496C23.6033 19.5496 23.7738 19.3791 23.7738 19.1687V17.989C23.7738 17.3381 23.2443 16.8085 22.5934 16.8085H20.7528V15.2125C20.7528 14.658 20.3016 14.2069 19.7471 14.2069H12.3808V12.3025H16.6136C17.1074 12.3025 17.5091 11.9009 17.5091 11.4071V10.6561C17.5091 10.4457 17.3386 10.2752 17.1282 10.2752C16.9178 10.2752 16.7474 10.4457 16.7474 10.6561V11.4071C16.7474 11.4808 16.6873 11.5408 16.6136 11.5408H15.3112V8.93911C15.3112 8.72872 15.1408 8.55825 14.9304 8.55825C14.72 8.55825 14.5495 8.72872 14.5495 8.93911V11.5408H9.45033V8.93911C9.45033 8.72872 9.27985 8.55825 9.06946 8.55825C8.85907 8.55825 8.6886 8.72872 8.6886 8.93911V11.5408H7.38625C7.31251 11.5408 7.25254 11.4808 7.25254 11.4071V8.6722C7.25254 7.54205 8.172 6.6226 9.30214 6.6226H14.6977C15.8279 6.6226 16.7473 7.54205 16.7473 8.67225V8.87873C16.7473 9.08912 16.9178 9.25959 17.1282 9.25959C17.3386 9.25959 17.509 9.08912 17.509 8.87873V8.67225C17.509 7.12204 16.2479 5.86087 14.6977 5.86087H14.1104C14.8434 5.25302 15.3112 4.3358 15.3112 3.31133C15.3112 1.48547 13.8258 0 11.9999 0C10.1741 0 8.6886 1.48547 8.6886 3.31133C8.6886 4.3358 9.15635 5.25302 9.88943 5.86087H9.30214C7.75198 5.86087 6.49081 7.12204 6.49081 8.6722V11.4071C6.49081 11.9009 6.8925 12.3025 7.38625 12.3025H11.6191V14.2069H4.25271C3.69823 14.2069 3.24708 14.658 3.24708 15.2125V16.8085H1.40655C0.755626 16.8085 0.226074 17.3381 0.226074 17.989V24.8196ZM20.8115 23.4565C20.8115 23.2256 20.9994 23.0377 21.2302 23.0377H22.4734L20.8115 24.6997V23.4565H20.8115ZM9.45033 3.31133C9.45033 1.90543 10.594 0.761726 11.9999 0.761726C13.4058 0.761726 14.5495 1.90543 14.5495 3.31133C14.5495 4.71168 13.412 5.86087 11.9979 5.86087C10.593 5.85981 9.45033 4.71656 9.45033 3.31133ZM12.4395 24.6997V23.4565C12.4395 23.2256 12.6274 23.0378 12.8582 23.0378H14.1014L12.4395 24.6997ZM14.2214 17.5702C14.4522 17.5702 14.6401 17.7581 14.6401 17.989V22.276H12.8582C12.2074 22.276 11.6778 22.8056 11.6778 23.4565V25.2383H9.77843C9.54757 25.2383 9.35973 25.0504 9.35973 24.8196V17.989C9.35973 17.7581 9.54757 17.5702 9.77843 17.5702H14.2214ZM4.06766 24.6997V23.4565C4.06766 23.2256 4.2555 23.0378 4.48636 23.0378H5.72955L4.06766 24.6997ZM0.9878 17.989C0.9878 17.7581 1.17564 17.5702 1.40655 17.5702H5.84949C6.08035 17.5702 6.26819 17.7581 6.26819 17.989V22.276H4.48636C3.83549 22.276 3.30594 22.8056 3.30594 23.4565V25.2383H1.40655C1.17564 25.2383 0.9878 25.0504 0.9878 24.8196V17.989Z" fill="#1C212D"/>
</svg>
